<?xml version="1.0" encoding="utf-8"?>
<svg xmlns="http://www.w3.org/2000/svg" width="390" height="420" viewBox="18.009 17.994 103.468 90.013" fill="none">
  <path d="M 120.705 62.738 L 98.075 58.551 L 95.485 63.035 L 89.112 74.07 L 72.563 102.722 C 71.839 103.977 69.928 103.461 69.928 102.01 L 69.928 77.93 L 69.928 75.316 C 69.928 73.959 68.971 72.792 67.644 72.531 L 41.862 67.467 L 18.782 63.247 C 18.817 64.446 19.101 65.639 19.64 66.743 L 38.688 99.797 C 41.345 104.409 46.252 107.246 51.558 107.239 L 88.087 107.191 C 93.391 107.184 98.288 104.337 100.935 99.721 L 119.576 67.213 C 120.371 65.831 120.745 64.28 120.705 62.738 Z" fill="url(#paint0_linear_1033_3306)"/>
  <path d="M 44.458 62.961 L 50.841 51.884 L 67.291 23.337 C 68.015 22.081 69.927 22.596 69.927 24.047 L 69.927 50.727 C 69.927 52.086 70.887 53.254 72.215 53.513 L 98.074 58.551 L 120.705 62.738 C 120.676 61.605 120.422 60.478 119.943 59.424 C 119.83 59.176 119.71 58.931 119.572 58.692 L 100.907 26.218 C 98.254 21.605 93.352 18.762 88.047 18.762 L 51.393 18.762 C 46.08 18.762 41.171 21.614 38.522 26.239 L 19.91 58.74 C 19.867 58.815 19.83 58.891 19.79 58.967 C 19.075 60.301 18.739 61.777 18.782 63.247 L 41.862 67.467 L 44.458 62.961 Z" fill="url(#paint1_linear_1033_3306)"/>
  <defs>
    <linearGradient id="paint0_linear_1033_3306" x1="118.679" y1="82.5652" x2="20.7175" y2="83.4727" gradientUnits="userSpaceOnUse" gradientTransform="matrix(1, 0, 0, 1, -0.102493, 0.067838)">
      <stop stop-color="#3585A3"/>
      <stop offset="1" stop-color="#00DEAE"/>
    </linearGradient>
    <linearGradient id="paint1_linear_1033_3306" x1="23.8174" y1="43.6462" x2="110.844" y2="41.3774" gradientUnits="userSpaceOnUse" gradientTransform="matrix(1, 0, 0, 1, -0.102493, 0.067838)">
      <stop stop-color="#3585A3"/>
      <stop offset="1" stop-color="#00DEAE"/>
    </linearGradient>
  </defs>
</svg>