<?xml version="1.0" encoding="utf-8"?>
<svg version="1.1" viewBox="140.784 237.401 970.881 785.929" width="1200" height="1200" xmlns="http://www.w3.org/2000/svg">
  <path transform="translate(480,311)" d="m0 0h20l26 2 5 2 9 2 10 2 7 4-1 10-3 9-3 10-3 9-5 14-2 7-4 12-2 7-3 9-2 2-6-1-10-3-9-2-20-2-21 3-9 4-11 7-10 9-9 12-6 11-5 10-5 15-1 1-2 11-3 12v2l84 1 1 4-2 5-2 9-2 12-2 5-4 21-2 4-2 11-3 12-2 4-83 1-3 4-2 13-3 11-2 12-2 4-3 14-2 10-4 16-2 9-2 10-4 16-1 2-2 12-4 15-1 9-2 4-5 24-1 1-4 21-2 5-2 12-3 12-1 2-2 12-4 14-2 12-1 1-4 21-2 5-2 12-3 6h-111l-1-3 2-13 4-14 2-12 2-5 4-20 2-6 2-10 4-17 2-9 2-10 1-1 2-13 4-14 2-11 2-5 4-21 2-5 2-11 4-16 2-10 4-17 1-7 2-5 4-20 2-5 4-21 2-4 1-9 1-7-51-1 2-17 2-5 4-20 4-14 2-12 2-5 2-10 2-4 52-1 4-12 2-10 6-20 4-10 2-6 6-13 8-17 5-7 4-7 10-14 11-13 4-5h2l1-3h2l1-3 11-9 9-7 7-5 9-5 13-7 10-4 11-4 7-2 18-5z" fill="#E3192E"/>
  <path transform="translate(606,324)" d="m0 0h385l1 1v118l-3 1-384-1v-118z" fill="#025681"/>
  <path transform="translate(606,556)" d="m0 0h127l1 1v353l-1 1h-127l-1-1v-353z" fill="#005580"/>
  <path transform="translate(865,556)" d="m0 0h126l1 1v354h-128l-1-2v-351z" fill="#025681"/>
</svg>