<svg xmlns="http://www.w3.org/2000/svg" width="192" height="192" viewBox="0 0 192 192" version="1.1"><path d="" stroke="none" fill="#34acc4" fill-rule="evenodd"/><path d="M 43.366 36.343 C 21.322 45.789, 2.547 54.131, 1.643 54.881 C -0.558 56.708, -0.427 59.237, 2.131 64.290 C 5.416 70.782, 8.099 74.176, 9.517 73.632 C 10.401 73.292, 11.658 75.866, 13.514 81.818 C 16.834 92.470, 20.707 100.336, 22.309 99.685 C 25.376 98.441, 89.545 69.684, 89.869 69.409 C 90.071 69.237, 89.509 61.277, 88.619 51.721 C 87.728 42.165, 87 31.359, 87 27.708 C 87 22.372, 86.652 20.884, 85.223 20.119 C 83.857 19.388, 74.194 23.133, 43.366 36.343 M 71 87.501 C 60.825 92.114, 46.324 98.657, 38.775 102.041 L 25.049 108.194 26.642 111.347 C 29.811 117.622, 39.156 131, 40.370 131 C 41.053 131, 54.555 124.430, 70.374 116.399 C 93.885 104.464, 99.013 101.497, 98.461 100.149 C 98.090 99.242, 96.553 94.225, 95.047 89 C 93.367 83.173, 91.766 79.425, 90.904 79.307 C 90.132 79.201, 81.175 82.888, 71 87.501 M 74.500 124.041 C 59.650 131.626, 47.366 138.486, 47.202 139.285 C 47.038 140.085, 50.188 143.577, 54.202 147.045 C 74.766 164.812, 93.722 172.071, 119.548 172.071 C 133.397 172.071, 146.823 169.775, 161.371 164.918 C 168.298 162.606, 170.552 162.213, 171.654 163.128 C 173.609 164.750, 180.733 162.337, 182.657 159.401 C 183.454 158.185, 185.317 156.886, 186.797 156.515 C 192.926 154.977, 193.573 151.471, 188.915 145.042 C 186.089 141.140, 185.566 140.843, 182.665 141.494 C 180.924 141.884, 178.313 142.307, 176.861 142.434 C 172.845 142.786, 168 145.075, 168 146.621 C 168 147.682, 166.088 148, 159.710 148 C 149.621 148, 141.885 146.135, 132.046 141.330 C 122.883 136.855, 111.997 126.384, 106.412 116.674 C 104.301 113.003, 102.332 110.056, 102.037 110.125 C 101.742 110.194, 89.350 116.456, 74.500 124.041" stroke="none" fill="#34acbc" fill-rule="evenodd"/></svg>