<?xml version="1.0" encoding="UTF-8"?>
<svg id="Layer_1" xmlns="http://www.w3.org/2000/svg" version="1.1" viewBox="0 0 154 154">
  <!-- Generator: Adobe Illustrator 29.1.0, SVG Export Plug-In . SVG Version: 2.1.0 Build 142)  -->
  <defs>
    <style>
      .st0 {
        fill: #4b39ef;
        fill-rule: evenodd;
      }
    </style>
  </defs>
  <path class="st0" d="M140.3,1c4.7,0,9,2.5,11.2,6.5,2.1,3.9,2,8.4-.2,12.2h0c0,.1-19.7,32.3-19.7,32.3-2.2,3.6-6.3,5.9-10.6,6h-.1s-22.5,0-22.5,0l9.4,20.9h0c0,0,0,.2,0,.2,2.2,3.9,2.2,8.5-.1,12.3h0c0,.1-19.7,32.3-19.7,32.3-2.2,3.6-6.3,5.9-10.6,6h-.1s-27.7,0-27.7,0l-19.9,20.4h0c-1.9,1.9-4.4,2.9-7,2.9s-1.3,0-2-.2c-3.2-.6-5.9-2.8-7.2-5.8h0c0,0-10.5-23.5-10.5-23.5h0c0,0,0-.2,0-.2,0,0,0,0,0,0-2.2-3.9-2.2-8.5.1-12.3h0c0-.1,19.1-31.3,19.1-31.3l-14.1-31.5h.3c0-.1,0-.1,0-.1-.6-2.9-.1-5.9,1.4-8.6h0c0-.1,0-.3,0-.3L29.4,7c2.2-3.6,6.3-5.9,10.6-6h100.3ZM36.6,129.4H15.7l6.2,13.9h0c.1.3.3.4.5.5.2,0,.4,0,.6-.2h0s13.7-14.2,13.7-14.2ZM96.6,81.6h-63.4c0,0-.1,0-.2,0h0s17.4,38.8,17.4,38.8h26.7c1.1,0,2.2-.6,2.8-1.5h0c0,0,19.8-32.3,19.8-32.3.6-1,.7-2.1.2-3.1-.5-1.2-1.8-1.9-3.2-1.9ZM26.6,89.6l-15.7,25.8c-.6,1-.7,2.2-.1,3.3h0c0,.1,0,.2,0,.2h0c0,.1.1.3.1.3v.2c.1,0,.3.1.3.1h0s0,.1,0,.1h0c.5.5,1.1.8,1.8.8h.2s0,0,0,0h.1s26.6,0,26.6,0l-13.7-30.8ZM22.5,58l6.9,15.4h.1c1.2-.4,2.4-.6,3.7-.7h.2s61.4,0,61.4,0l-6.6-14.7H22.5ZM140.1,10h-63.6l17.4,38.8h26.6c1.1,0,2.2-.6,2.8-1.5h0c0,0,19.8-32.3,19.8-32.3.6-1,.7-2.1.2-3.1-.5-1.1-1.7-1.9-3.1-1.9h0ZM66.7,10h-26.5c-1.1,0-2.1.6-2.7,1.5h0c0,0-19.7,32.3-19.7,32.3-.6,1-.7,2.1-.2,3.1.5,1.1,1.7,1.9,3.1,1.9h0s63.4,0,63.4,0l-17.3-38.8Z"/>
</svg>