<svg xmlns="http://www.w3.org/2000/svg" width="2010" height="2070" viewBox="0 0 2010 2070" version="1.1"><path d="M 994 235.667 C 815.660 243.401, 650.004 309.154, 513.666 426.326 C 496.572 441.017, 462.063 474.754, 446.312 492.174 C 337.517 612.496, 269.246 760.582, 249.074 920 C 244.489 956.237, 243.554 972.759, 243.526 1018 C 243.500 1062.284, 244.132 1075.019, 248.099 1110 C 277.751 1371.539, 439.670 1602.241, 676.894 1720.950 C 765.509 1765.294, 856.134 1790.814, 960 1800.672 C 986.991 1803.234, 1065.441 1803.247, 1093 1800.694 C 1160.656 1794.427, 1221.157 1781.677, 1281.500 1760.969 C 1417.620 1714.257, 1537.181 1631.471, 1630.956 1519 C 1721.425 1410.494, 1781.918 1274.691, 1802.452 1134 C 1808.823 1090.349, 1811.870 1039.002, 1810.539 997.697 C 1810.118 984.605, 1809.601 974.066, 1809.391 974.276 C 1809.181 974.486, 1808.310 981.372, 1807.457 989.579 C 1806.603 997.786, 1804.773 1012.150, 1803.390 1021.500 C 1766.465 1271.148, 1590.602 1481.744, 1351.087 1563.132 C 1299.808 1580.557, 1249.926 1591.178, 1193.500 1596.686 C 1170.791 1598.903, 1099.271 1599.221, 1077.500 1597.202 C 990.881 1589.169, 920.134 1570.318, 843.771 1534.923 C 807.204 1517.974, 764.269 1492.435, 731.755 1468.294 L 721.009 1460.316 729.326 1452.745 L 737.643 1445.174 751.511 1452.221 C 788.955 1471.248, 832.825 1484.651, 877 1490.560 C 893.507 1492.768, 939.257 1493.637, 957.145 1492.082 C 1006.458 1487.796, 1049.797 1475.883, 1093.530 1454.593 C 1132.736 1435.507, 1163.622 1413.886, 1194.371 1384 C 1272.631 1307.939, 1315.022 1203.844, 1311.653 1096 C 1308.954 1009.596, 1280.109 931.110, 1226.448 864.164 C 1179.773 805.932, 1115.537 761.597, 1044.309 738.452 C 1028.058 733.171, 1003.377 727.311, 986 724.608 C 941.017 717.609, 891.519 718.639, 848 727.479 C 731.600 751.122, 632.288 827.480, 578.749 934.500 C 533.631 1024.684, 526.013 1130.345, 557.639 1227.293 C 560.114 1234.879, 561.995 1241.431, 561.819 1241.854 C 561.326 1243.041, 544.819 1258, 544.002 1258 C 543.605 1258, 539.197 1250.463, 534.206 1241.250 C 498.350 1175.061, 473.303 1100.103, 461.613 1024 C 455.459 983.939, 453.574 954.226, 454.297 908.707 C 454.856 873.545, 456.030 856.936, 460.037 827.500 C 494.258 576.115, 668.122 363.684, 908.599 279.434 C 971.202 257.502, 1040.593 244.474, 1106.500 242.279 C 1128.797 241.536, 1128.115 241.078, 1101 238.586 C 1066.910 235.453, 1025.183 234.315, 994 235.667" stroke="none" fill="#041464" fill-rule="evenodd"/><path d="M 1107.208 242.091 C 899.780 250.516, 710.889 349.908, 587.753 515.423 C 512.835 616.124, 469.458 729.276, 456.426 858 C 454.267 879.322, 453.405 938.925, 454.925 961.707 C 460.884 1051.010, 480.607 1128.329, 518.067 1209.241 C 525.801 1225.945, 542.851 1258, 544.002 1258 C 544.819 1258, 561.326 1243.041, 561.819 1241.854 C 561.995 1241.431, 560.114 1234.879, 557.639 1227.293 C 526.013 1130.345, 533.631 1024.684, 578.749 934.500 C 599.464 893.092, 628.395 854.282, 661 824.165 C 722.182 767.649, 793.540 733.967, 875.500 722.917 C 895.349 720.241, 935.194 719.267, 955.584 720.959 C 1051.081 728.883, 1137.309 769.668, 1203.634 838.284 C 1315.573 954.090, 1343.632 1127.879, 1273.953 1273.819 C 1241.946 1340.856, 1189.206 1398.826, 1124.512 1438.077 C 1108.670 1447.689, 1077.841 1462.618, 1060.705 1468.975 C 1027.349 1481.350, 993.356 1488.935, 957.145 1492.082 C 939.257 1493.637, 893.507 1492.768, 877 1490.560 C 832.825 1484.651, 788.955 1471.248, 751.511 1452.221 L 737.643 1445.174 729.326 1452.745 L 721.009 1460.316 731.755 1468.294 C 822.006 1535.304, 934.419 1580.035, 1047.500 1593.937 C 1079.998 1597.932, 1090.786 1598.500, 1133.500 1598.472 C 1178.545 1598.441, 1193.724 1597.479, 1229 1592.419 C 1371.081 1572.038, 1502.037 1507.528, 1605.389 1407.008 C 1719.994 1295.544, 1790.854 1149.184, 1807.448 989.661 C 1808.297 981.500, 1809.220 974.453, 1809.499 974.001 C 1810.167 972.920, 1807.462 941.721, 1804.947 921.500 C 1778.890 712.009, 1669.269 522.318, 1500 393.807 C 1402.295 319.629, 1288.059 269.260, 1168.500 247.643 C 1154.064 245.033, 1127.405 240.882, 1126.827 241.154 C 1126.647 241.238, 1117.819 241.660, 1107.208 242.091 M 471.988 464.750 L 456.500 480.500 472.250 465.012 C 486.882 450.624, 488.452 449, 487.738 449 C 487.594 449, 480.506 456.087, 471.988 464.750 M 242.385 1019 C 242.385 1025.875, 242.545 1028.688, 242.740 1025.250 C 242.936 1021.813, 242.936 1016.188, 242.740 1012.750 C 242.545 1009.313, 242.385 1012.125, 242.385 1019 M 1580.489 1574.250 L 1563.500 1591.500 1580.750 1574.511 C 1590.237 1565.167, 1598 1557.405, 1598 1557.261 C 1598 1556.548, 1596.273 1558.224, 1580.489 1574.250 M 1015.750 1803.747 C 1021.938 1803.922, 1032.063 1803.922, 1038.250 1803.747 C 1044.438 1803.571, 1039.375 1803.428, 1027 1803.428 C 1014.625 1803.428, 1009.563 1803.571, 1015.750 1803.747" stroke="none" fill="#5f90e6" fill-rule="evenodd"/></svg>