<svg width="380" height="420" viewBox="0 0 40 42" fill="none" xmlns="http://www.w3.org/2000/svg">
<path d="M15.9999 32.1865C24.3872 32.1865 31.1864 25.3873 31.1864 17C31.1864 8.6128 24.3872 1.8136 15.9999 1.8136C7.61268 1.8136 0.813477 8.6128 0.813477 17C0.813477 25.3873 7.61268 32.1865 15.9999 32.1865Z" fill="white"/>
<path d="M16 1C7.16344 1 0 8.16344 0 17C0 25.8366 7.16344 33 16 33C24.8366 33 32 25.8366 32 17C32 8.16344 24.8366 1 16 1ZM16 2.62712C23.9379 2.62712 30.3729 9.06208 30.3729 17C30.3729 24.9379 23.9379 31.3729 16 31.3729C8.06208 31.3729 1.62712 24.9379 1.62712 17C1.62712 9.06208 8.06208 2.62712 16 2.62712Z" fill="#4000BF"/>
<path fill-rule="evenodd" clip-rule="evenodd" d="M16.1808 5.61023C22.4713 5.61023 27.5707 10.7096 27.5707 17.0001C27.5707 23.2905 22.4713 28.3899 16.1808 28.3899C9.89042 28.3899 4.79102 23.2905 4.79102 17.0001C4.79102 15.4627 5.09559 13.9965 5.6477 12.6585C6.45385 13.7563 7.7539 14.469 9.22039 14.469C11.6667 14.469 13.6498 12.4859 13.6498 10.0396C13.6498 8.57311 12.9371 7.27307 11.8392 6.46693C13.1773 5.91481 14.6435 5.61023 16.1808 5.61023Z" fill="url(#paint0_linear)"/>
<defs>
<linearGradient id="paint0_linear" x1="16.1808" y1="28.3899" x2="16.1808" y2="5.61023" gradientUnits="userSpaceOnUse">
<stop stop-color="#7400E1"/>
<stop offset="1" stop-color="#4000BF"/>
</linearGradient>
</defs>
</svg>
