<svg xmlns="http://www.w3.org/2000/svg" viewBox="0 0 256 256" class="size-5">
    <defs><style>@media (prefers-color-scheme:dark){path{fill:white}}</style></defs>
  <path d="M189.110 24.368 C 183.940 25.229,187.810 21.548,104.679 104.679 C 42.778 166.580,26.741 182.837,25.892 184.548 C 22.647 191.085,23.785 198.225,28.886 203.325 C 33.508 207.947,40.920 209.223,46.933 206.432 C 49.724 205.136,205.136 49.724,206.432 46.933 C 208.357 42.785,208.347 37.432,206.404 33.189 C 205.152 30.453,202.003 27.207,199.247 25.810 C 197.611 24.981,192.508 23.742,191.573 23.946 C 191.456 23.972,190.347 24.162,189.110 24.368 M202.164 113.230 C 200.831 113.778,199.007 114.816,198.111 115.537 C 197.214 116.257,178.030 135.340,155.480 157.943 C 110.998 202.531,113.136 200.166,112.228 205.799 C 111.238 211.942,115.043 219.412,120.581 222.197 C 125.718 224.779,132.387 224.404,136.877 221.280 C 139.834 219.222,221.304 137.277,222.193 135.467 C 226.494 126.705,222.528 116.464,213.532 113.098 C 210.178 111.843,205.401 111.899,202.164 113.230 " stroke="none" fill="black" fill-rule="evenodd"/>
</svg>
