<svg width="154" height="72" viewBox="0 0 154 72" fill="none" xmlns="http://www.w3.org/2000/svg">
<g id="symph logo">
<path id="Fill 1" fill-rule="evenodd" clip-rule="evenodd" d="M125.635 51.5777C121.793 50.7511 116.573 49.5596 110.521 48.4648C109.872 49.1562 109.294 50.0402 109.139 51.0871C108.976 52.183 109.317 53.226 109.78 54.0791C121.514 56.3099 130.683 59.1097 130.683 59.1097C130.683 59.1097 132.246 53.0003 125.635 51.5777Z" fill="#0AA5FF"/>
<path id="Fill 3" fill-rule="evenodd" clip-rule="evenodd" d="M31.7362 40.9626C31.7362 31.7988 7.17045 35.2633 7.17045 24.9707C7.17045 14.7779 19.3012 3.97834 26.3871 4.38294C32.0556 4.70649 25.0079 18.0363 19.4852 22.2619C19.3644 22.3541 19.32 22.5097 19.3812 22.6448C19.7016 23.35 20.9424 25.3961 24.5515 25.3961C27.6203 25.3961 33.9584 16.9041 33.9584 8.53504C33.9584 3.89565 31.263 0.222656 25.8134 0.222656C11.6537 0.222656 0 10.0994 0 22.0507C0 39.0796 25.3689 35.4773 25.3689 42.0678C25.3689 46.766 18.3724 50.6764 10.5117 50.8236C10.2434 50.8287 10.0221 51.0226 10.0023 51.2772C9.89944 52.5899 9.94694 56.3267 13.8246 56.3267C23.3468 56.3267 31.7362 48.7402 31.7362 40.9626Z" fill="#0AA5FF"/>
<path id="Fill 6" fill-rule="evenodd" clip-rule="evenodd" d="M67.8796 42.8943C68.1847 42.9382 68.4619 42.7224 68.4738 42.429C68.4971 41.8564 68.5504 41.2111 68.6273 40.5116L68.6309 40.5131C68.6309 40.5131 72.5695 22.2098 77.3536 22.2098C78.8042 22.2098 78.9782 23.7213 78.682 25.3618C78.6787 25.3765 78.677 25.3896 78.6736 25.4045C77.5171 31.0535 76.9151 34.3254 76.9151 38.2076C76.9151 40.7115 80.7266 41.5836 82.405 41.8462C82.803 41.9084 83.1668 41.6332 83.199 41.2538L83.219 41.2613C83.219 41.2613 87.0251 22.2098 91.8091 22.2098C93.2598 22.2098 93.4337 23.7213 93.1377 25.3618C93.1342 25.3765 93.1325 25.3896 93.1291 25.4045C91.9726 31.0535 91.1058 34.4356 91.1058 38.3178C91.1058 40.8219 94.9172 41.6938 96.5956 41.9564C97.0011 42.0198 97.3731 41.7337 97.3929 41.3432C97.5951 37.3508 98.8949 32.4312 100.011 26.5292C100.033 26.4048 100.056 26.2854 100.078 26.1674C100.116 25.9611 100.154 25.7549 100.192 25.5517C100.541 23.6738 100.854 21.9855 100.854 21.2865C100.854 19.9862 100.31 18.742 99.2537 17.7857C99.2537 17.7857 99.2537 17.7841 99.252 17.7823C98.2573 16.8817 96.8066 16.2368 94.924 16.0352C94.5161 15.9912 94.0874 15.9681 93.6402 15.9681C91.7737 15.9681 89.3192 17.2492 85.7796 25.3173C86.1109 23.5345 86.3986 21.9562 86.3986 21.2865C86.3986 19.9862 85.8548 18.742 84.7982 17.7857C84.7982 17.7857 84.7982 17.7841 84.7965 17.7823C83.8016 16.8817 82.3511 16.2368 80.4684 16.0352C80.0606 15.9912 79.6321 15.9681 79.1847 15.9681C77.3786 15.9681 74.9619 16.8267 71.5649 23.9929C71.8659 22.3082 72.0624 20.9742 72.0624 20.2449C72.0624 16.6543 68.269 16.0039 66.696 15.8887C66.3317 15.862 66.01 16.1135 65.9649 16.4585C65.4282 20.5614 62.1953 32.6786 62.1953 39.2261C62.1953 41.8331 66.3248 42.6711 67.8796 42.8943Z" fill="#0AA5FF"/>
<path id="Fill 8" fill-rule="evenodd" clip-rule="evenodd" d="M119.612 22.5277C121.063 22.5277 121.742 23.9056 121.742 26.0678C121.742 33.6816 117.953 40.5592 111.005 40.5592C110.48 40.5592 109.956 40.5115 109.442 40.4314C109.857 38.2437 110.27 36.105 110.654 34.0628C113.123 27.2778 116.583 22.5277 119.612 22.5277ZM33.8148 68.9653C30.7494 68.9653 29.516 67.0488 29.516 65.8276C29.516 65.16 28.7151 58.7303 46.1486 54.6765C43.4954 62.8459 39.8574 68.9653 33.8148 68.9653ZM115.129 43.5823C123.26 43.5823 128.455 36.2461 128.455 25.9233C128.455 20.1723 125.748 16.287 121.016 16.287C118.275 16.287 116.084 16.9106 112.199 24.9103C112.438 23.1018 112.58 21.5245 112.58 20.2542C112.58 16.5589 108.562 15.9778 107.082 15.8891C106.79 15.8717 106.542 16.0892 106.537 16.3672C106.392 23.613 103.151 36.157 101.223 47.0067C95.4333 46.238 89.2251 45.705 82.9416 45.705C71.5731 45.705 62.4687 46.2886 55.1745 47.2556C56.5639 41.9599 57.7283 35.5225 58.5468 27.6929C58.8777 24.5278 59.2105 21.432 59.1418 20.0736C58.9548 16.3677 54.8809 15.9824 53.4123 15.9644C53.1239 15.9608 52.8897 16.184 52.8916 16.4586C52.8947 16.8956 52.9014 17.4714 52.9009 18.1619C52.6243 23.0974 48.2001 40.6944 42.6467 40.6944C40.8684 40.6944 41.2125 37.8561 41.2125 36.6009C41.2125 35.3455 43.6218 23.2288 43.6218 20.1178C43.6218 16.3968 39.5484 15.8336 38.0934 15.7509C37.814 15.7352 37.5737 15.9331 37.5503 16.1987C37.1795 20.3903 34.7879 31.7827 34.7879 37.8835C34.7879 42.9867 38.1571 45.9886 41.0826 45.9886C45.5048 45.9886 48.813 40.7741 50.7912 35.7734C49.8793 39.9597 48.9705 44.3181 47.924 48.4507C25.9317 52.892 25.8105 61.4645 25.8105 64.533C25.8105 69.3764 29.6055 71.7775 33.1531 71.7775C36.825 71.7775 46.6692 72.0385 53.3199 53.3249C61.0816 52.1465 71.3686 51.3813 85.0067 51.3813C89.9723 51.3813 95.234 51.8427 100.352 52.5395C100.019 55.0601 99.8162 57.3968 99.8162 59.4376C99.8162 62.5624 103.841 64.4104 105.498 65.0388C105.833 65.1657 106.198 64.9337 106.203 64.5908C106.294 58.2061 107.617 50.2178 109.033 42.6095C110.626 43.1872 112.628 43.5823 115.129 43.5823Z" fill="#0AA5FF"/>
<path id="Fill 10" fill-rule="evenodd" clip-rule="evenodd" d="M135.444 54.609C134.209 55.2099 133.951 57.0777 134.866 58.7808C135.781 60.4837 137.524 61.3772 138.759 60.7763C139.994 60.1753 140.253 58.3077 139.337 56.6047C138.422 54.9016 136.679 54.0083 135.444 54.609Z" fill="#0AA5FF"/>
<path id="Fill 12" fill-rule="evenodd" clip-rule="evenodd" d="M150.697 53.1515C150.697 40.6906 153.999 33.483 153.999 27.1014C153.999 23.3311 152.216 20.1295 147.387 20.1356C144.506 20.1392 141.885 21.2554 138.714 28.2926C140.028 19.3657 141.39 10.2934 143.192 5.03247C143.283 4.76804 143.125 4.48559 142.843 4.41108C141.415 4.03285 137.418 3.32713 136.144 6.8187C133.848 13.1097 132.224 29.3975 129.459 42.1965C128.615 46.101 130.797 48.1545 134.967 49.3961C135.278 49.4889 135.602 49.2859 135.634 48.9768C135.77 47.6972 136.113 44.6108 136.485 42.449C138.345 33.4432 142.315 25.4907 145.269 25.4871C149.629 25.4815 144.186 39.0953 144.186 52.2612C144.186 59.8956 148.265 61.7966 152.619 61.0835C152.87 61.0424 152.988 60.7635 152.838 60.568C152.151 59.6758 150.697 57.297 150.697 53.1515Z" fill="#0AA5FF"/>
</g>
</svg>
